<svg aria-hidden="true" style="position: absolute; width: 0; height: 0; overflow: hidden;" version="1.1" xmlns="http://www.w3.org/2000/svg" xmlns:xlink="http://www.w3.org/1999/xlink">
<defs>
<symbol id="icon-animal" viewBox="0 0 32 32">
<path fill="#3a5f56" style="fill: var(--color1, #3a5f56)" d="M15.515 0c0.8 0 1.493 0.64 1.493 1.493v3.040c0 0.96-0.32 1.92-0.853 2.72 0.533 0.8 0.853 1.76 0.853 2.72v2.133c0 0.8-0.64 1.493-1.493 1.493-2.186 0-4.105-1.493-4.692-3.573-0.587 0.213-1.12 0.64-1.653 1.227-0.373 0.48-0.48 1.173-0.16 1.76s0.853 0.96 1.546 0.96c0.32 0 0.533 0.213 0.533 0.533s-0.213 0.533-0.533 0.533c-1.066 0-2.026-0.587-2.506-1.547s-0.32-2.080 0.32-2.933c0.906-0.96 1.759-1.547 2.772-1.76 0.16-0.053 0.32-0.053 0.427 0.053s0.213 0.213 0.213 0.373c0.267 1.92 1.866 3.307 3.786 3.307 0.213 0 0.427-0.213 0.427-0.427v-2.133c0-0.853-0.32-1.707-0.853-2.347-0.16-0.213-0.16-0.48 0-0.693 0.533-0.64 0.853-1.493 0.853-2.347v-3.093c0-0.213-0.213-0.427-0.427-0.427-2.133 0-3.839 1.76-3.839 3.84 0 0.48-0.533 0.533-0.746 0.533-2.666 0.213-4.958 1.227-6.825 3.093-2.719 2.667-3.732 6.507-2.772 10.133 0.96 3.733 3.786 6.56 7.464 7.52 0.16 0.053 0.32 0.16 0.373 0.32s0.053 0.32-0.053 0.48c-1.066 1.547-2.079 2.293-2.986 2.987l-0.16 0.16c-0.267 0.16-0.213 0.373-0.16 0.48s0.16 0.32 0.427 0.32c3.519 0 6.825-1.547 9.064-4.213 0.107-0.16 0.267-0.213 0.427-0.213l2.506 0.053c6.345 0 11.783-4.693 12.636-11.040 0-0.16-0.053-0.267-0.107-0.32s-0.16-0.16-0.32-0.16h-11.463c-0.32 0-0.533-0.213-0.533-0.533s0.213-0.533 0.533-0.533h11.463c0.427 0 0.853 0.213 1.12 0.533 0.267 0.373 0.427 0.8 0.373 1.173-0.906 6.827-6.771 11.947-13.649 11.947h-2.293c-2.453 2.773-5.972 4.373-9.704 4.373-0.693 0-1.226-0.373-1.44-1.013-0.213-0.587 0-1.28 0.533-1.653l0.213-0.16c0.746-0.587 1.493-1.12 2.293-2.133-3.732-1.28-6.505-4.213-7.518-8.053-1.12-4.053 0-8.267 2.986-11.253 1.973-1.973 4.425-3.093 7.251-3.36 0.213-2.453 2.346-4.373 4.852-4.373zM25.805 17.013c0.747 0 1.386 0.64 1.386 1.387s-0.64 1.333-1.386 1.387c-0.746 0-1.386-0.64-1.386-1.387s0.64-1.387 1.386-1.387z"></path>
</symbol>
<symbol id="icon-architecture" viewBox="0 0 32 32">
<path fill="#3a5f56" style="fill: var(--color1, #3a5f56)" d="M16 2c8.107 0 14.987 4.667 16 10.802v0.262c0 0.052-0.053 0.052-0.053 0.105-0.053 0-0.053 0.052-0.053 0.105 0 0 0 0.052-0.053 0.052s-0.053 0.052-0.107 0.052-0.053 0.052-0.107 0.052h-3.68v15.521h1.067c0.32 0 0.533 0.21 0.533 0.524s-0.213 0.524-0.533 0.524h-9.067c-0.32 0-0.533-0.21-0.533-0.524s0.213-0.524 0.533-0.524h1.28v-15.521h-10.293v15.468h1.173c0.32 0 0.533 0.21 0.533 0.524s-0.213 0.524-0.533 0.524h-9.067c-0.32 0-0.533-0.21-0.533-0.524s0.213-0.524 0.533-0.524h1.173v-15.521h-3.947c-0.053 0-0.107-0.052-0.107-0.052l-0.053-0.052c0-0.052-0.053-0.052-0.053-0.105-0.053-0.052-0.053-0.052-0.053-0.105v-0.262c1.013-6.135 7.893-10.802 16-10.802zM9.867 13.431h-4.533v15.521h4.533v-15.521zM26.827 13.431h-4.533v15.521h4.533v-15.521zM16 3.049c-7.307 0-13.547 3.985-14.827 9.333h29.653c-1.28-5.348-7.52-9.333-14.827-9.333zM19.093 8.135c0.32 0 0.533 0.21 0.533 0.524s-0.213 0.524-0.533 0.524h-6.133c-0.32 0-0.533-0.21-0.533-0.524s0.213-0.524 0.533-0.524h6.133z"></path>
</symbol>
<symbol id="icon-arrow" viewBox="0 0 64 32">
<path fill="#3a5f56" style="fill: var(--color1, #3a5f56)" d="M59.775 12.074l-11.126-10.98c-1.527-1.423-3.927-1.423-5.454-0.203-1.527 1.423-1.527 3.66-0.218 5.083l6.327 6.303h-45.377c-2.182 0-3.927 1.627-3.927 3.66s1.745 3.66 3.927 3.66h45.595l-6.326 6.303c-1.527 1.423-1.309 3.66 0.218 5.083 0.655 0.61 1.745 1.017 2.618 1.017 1.091 0 1.964-0.407 2.836-1.017l11.126-10.98c1.964-2.44 1.964-5.693-0.218-7.93z"></path>
</symbol>
<symbol id="icon-basket" viewBox="0 0 32 32">
<path d="M4.905 3.765h-4.905v-3.765h8.271l0.845 7.529h21.002v11.178l-23.022 4.576-2.19-19.519zM29.176 32c-1.559 0-2.824-1.264-2.824-2.824s1.264-2.824 2.824-2.824c1.559 0 2.824 1.264 2.824 2.824s-1.264 2.824-2.824 2.824zM10.353 32c-1.559 0-2.824-1.264-2.824-2.824s1.264-2.824 2.824-2.824c1.559 0 2.824 1.264 2.824 2.824s-1.264 2.824-2.824 2.824z"></path>
</symbol>
<symbol id="icon-food" viewBox="0 0 32 32">
<path fill="#3a5f56" style="fill: var(--color1, #3a5f56)" d="M30.124 13.305c0.533 0 1.013 0.209 1.386 0.576s0.533 0.837 0.48 1.361c-0.32 3.507-1.919 6.804-4.477 9.316-0.959 0.994-2.079 1.779-3.251 2.46v0.523c0 1.361-1.119 2.46-2.505 2.46h-11.514c-1.386 0-2.505-1.099-2.505-2.46v-0.523c-4.371-2.46-7.249-6.856-7.729-11.776-0.053-0.471 0.16-0.994 0.48-1.361 0.373-0.366 0.853-0.576 1.386-0.576h28.251zM29.645 19.69h-27.344c1.279 2.721 3.465 5.024 6.236 6.542 0.16 0.105 0.267 0.262 0.267 0.471v0.785c0 0.785 0.64 1.413 1.439 1.413h11.514c0.799 0 1.439-0.628 1.439-1.413v-0.785c0-0.209 0.107-0.366 0.267-0.471 1.226-0.628 2.345-1.465 3.305-2.407 1.226-1.204 2.185-2.617 2.878-4.135zM30.178 14.299h-28.304c-0.213 0-0.426 0.105-0.586 0.262s-0.213 0.366-0.213 0.576c0.107 1.204 0.373 2.407 0.8 3.507h28.251c0.426-1.151 0.693-2.303 0.853-3.507 0-0.209-0.053-0.419-0.213-0.576s-0.373-0.262-0.586-0.262zM8.11 2c0.32 0 0.533 0.209 0.533 0.523v6.228c0 0.314-0.213 0.523-0.533 0.523s-0.533-0.262-0.533-0.523v-6.228c0-0.314 0.213-0.523 0.533-0.523zM23.888 2c0.32 0 0.533 0.209 0.533 0.523v6.228c0 0.314-0.213 0.523-0.533 0.523-0.267 0-0.533-0.262-0.533-0.523v-6.228c0-0.314 0.213-0.523 0.533-0.523zM15.999 2c0.32 0 0.533 0.209 0.533 0.523v6.228c0 0.314-0.213 0.523-0.533 0.523s-0.533-0.262-0.533-0.523v-6.228c0-0.314 0.213-0.523 0.533-0.523z"></path>
</symbol>
<symbol id="icon-logo" viewBox="0 0 121 32">
<path fill="#3a5f56" style="fill: var(--color1, #3a5f56)" d="M109.49 9.994c4.159 0 8.19 2.479 10.035 6.635 0.672 1.513 1.008 3.064 1.008 4.576 0 4.198-2.353 8.106-6.299 9.867-1.387 0.634-2.812 0.928-4.241 0.928-4.201 0-8.231-2.479-10.077-6.635-0.634-1.513-0.97-3.067-0.97-4.622 0-4.156 2.311-8.102 6.299-9.867 1.39-0.588 2.815-0.882 4.244-0.882zM9.030 0c0.333 0 0.543 0.126 0.756 0.378l10.704 21.666 10.711-21.666c0.21-0.252 0.42-0.378 0.756-0.378h7.892c0.424 0 0.63 0.21 0.63 0.63v1.26c0 0.42-0.207 0.627-0.63 0.627-0.921 0-1.803 0.168-2.602 0.63v21.838c0 2.269 1.050 3.988 3.106 3.988 0.42 0 0.634 0.214 0.634 0.634v1.257c0 0.42-0.214 0.63-0.634 0.63h-10.371c-0.378 0-0.63-0.21-0.63-0.63v-1.257c0-0.42 0.252-0.634 0.63-0.634 2.059 0 3.067-1.719 3.067-3.988v-15.917l-9.913 20.077c-0.126 0.291-0.375 0.462-0.714 0.462h-3.866c-0.333 0-0.585-0.172-0.753-0.462l-9.87-20.077v15.917c0 2.269 1.008 3.988 3.067 3.988 0.378 0 0.63 0.214 0.63 0.634v1.257c0 0.42-0.252 0.63-0.63 0.63h-10.375c-0.417 0-0.627-0.21-0.627-0.63v-1.257c0-0.42 0.21-0.634 0.627-0.634 2.059 0 3.109-1.719 3.109-3.988v-21.838c-0.798-0.462-1.681-0.63-2.602-0.63-0.42 0-0.63-0.207-0.63-0.627v-1.26c0-0.42 0.21-0.63 0.63-0.63h7.896zM51.339 9.197c0.084 0 0.084 0 0.123 0.042v15.749c0 2.265 1.012 3.985 3.067 3.985h0.13c0.42 0 0.627 0.214 0.627 0.634v1.257c0 0.42-0.294 0.63-0.714 0.63h-11.88c-0.42 0-0.714-0.21-0.714-0.63v-1.257c0-0.42 0.207-0.634 0.627-0.634h0.087c2.055 0 3.064-1.719 3.022-3.985v-4.454c0-0.086-0-0.173-0.001-0.26l-0.002-0.132c-0.030-1.804-0.323-3.824-2.476-4.058-0.42-0.042-0.504-0.256-0.504-0.55v-1.425c0-0.336 0.21-0.42 0.63-0.546 4.412-1.471 6.593-3.109 7.728-4.286 0.042-0.039 0.126-0.081 0.168-0.081h0.084zM66.21 9.196c0.046 0 0.088 0 0.088 0.042l-1.008 5.669c1.509-3.232 4.408-4.954 7.391-4.954 2.602 0 4.741 1.471 4.741 4.324 0 1.26-0.081 2.269-1.089 2.689l-3.946 1.597c-0.126 0.081-0.252 0.081-0.378 0.081-0.252 0-0.378-0.165-0.378-0.375 0-0.126 0.042-0.252 0.084-0.378 0.333-0.798 0.378-1.513 0.378-2.101 0-1.513-0.84-2.185-1.971-2.185-1.933 0-3.617 2.104-4.205 3.655v7.727c0 2.265 1.008 3.988 3.067 3.988h0.088c0.417 0 0.627 0.21 0.627 0.63v1.26c0 0.42-0.21 0.627-0.627 0.627h-12.22c-0.424 0-0.634-0.207-0.634-0.627v-1.26c0-0.42 0.21-0.63 0.634-0.63h0.081c2.059 0 3.067-1.723 3.067-3.988l-0-5.368-0.001-0.149-0.001-0.149c-0.023-2.109-0.294-4.215-2.477-4.457-0.42-0.039-0.504-0.252-0.504-0.546v-1.425c0-0.34 0.21-0.462 0.63-0.546 3.992-0.63 7.181-2.269 8.27-3.067 0.087-0.042 0.126-0.084 0.214-0.084h0.081zM87.512 9.196c0.046 0 0.088 0 0.088 0.042l-1.008 5.669c1.509-3.232 4.408-4.954 7.391-4.954 2.602 0 4.741 1.471 4.741 4.324 0 1.26-0.081 2.269-1.089 2.689l-3.946 1.597c-0.126 0.081-0.252 0.081-0.378 0.081-0.252 0-0.378-0.165-0.378-0.375 0-0.126 0.042-0.252 0.084-0.378 0.333-0.798 0.378-1.513 0.378-2.101 0-1.513-0.84-2.185-1.971-2.185-1.933 0-3.617 2.104-4.205 3.655v7.727c0 2.265 1.008 3.988 3.067 3.988h0.088c0.417 0 0.627 0.21 0.627 0.63v1.26c0 0.42-0.21 0.627-0.627 0.627h-12.22c-0.424 0-0.634-0.207-0.634-0.627v-1.26c0-0.42 0.21-0.63 0.634-0.63h0.081c2.059 0 3.067-1.723 3.067-3.988v-5.294l-0.001-0.223c-0.013-2.158-0.244-4.358-2.478-4.605-0.42-0.039-0.504-0.252-0.504-0.546v-1.425c0-0.34 0.21-0.462 0.63-0.546 3.992-0.63 7.181-2.269 8.27-3.067 0.088-0.042 0.126-0.084 0.214-0.084h0.081zM108.188 13.355c-0.546 0-1.135 0.126-1.681 0.375-1.849 0.802-2.56 2.479-2.56 4.412 0 1.551 0.462 3.277 1.176 4.912 1.345 2.983 3.564 5.585 6.174 5.585 0.546 0 1.088-0.126 1.677-0.375 1.807-0.802 2.521-2.479 2.521-4.412 0-1.555-0.462-3.316-1.177-4.912-1.302-2.983-3.571-5.585-6.13-5.585zM48.527 0.419c0.753 0 1.341 0.294 2.097 1.050s1.050 1.345 1.050 2.097c0 0.756-0.294 1.39-1.050 2.101-0.756 0.756-1.345 1.050-2.097 1.050-0.756 0-1.39-0.294-2.101-1.050-0.756-0.711-1.050-1.345-1.050-2.101 0-0.753 0.294-1.341 1.050-2.097 0.711-0.756 1.345-1.050 2.101-1.050z"></path>
</symbol>
<symbol id="icon-nature" viewBox="0 0 32 32">
<path fill="#3a5f56" style="fill: var(--color1, #3a5f56)" d="M26.503 20.053l-5.277-9.12c0-0.053 0-0.053 0-0.107s0.054-0.053 0.109-0.053h0.979c0.435 0 0.871-0.267 1.088-0.64s0.163-0.853-0.109-1.227l-6.419-8.427c-0.218-0.32-0.544-0.48-0.979-0.48s-0.762 0.16-0.979 0.48l-6.311 8.427c-0.272 0.373-0.326 0.853-0.109 1.227s0.598 0.64 1.088 0.64h1.578c0.054 0 0.054 0 0.109 0.053 0 0.053 0 0.053 0 0.107l-5.767 9.067c-0.218 0.373-0.218 0.8-0.054 1.173 0.218 0.373 0.598 0.587 1.034 0.587h8.922v9.707c0 0.32 0.218 0.533 0.544 0.533s0.544-0.213 0.544-0.533v-9.653h8.977c0.435 0 0.816-0.213 1.034-0.587s0.218-0.8 0-1.173zM25.524 20.693c0 0.053-0.054 0.053-0.109 0.053h-18.987c-0.054 0-0.054 0-0.109-0.053 0-0.053 0-0.053 0-0.107l5.767-9.067c0.218-0.373 0.218-0.8 0.054-1.173-0.218-0.373-0.598-0.587-1.034-0.587h-1.578c-0.054 0-0.054 0-0.109-0.053 0-0.053 0-0.053 0-0.107l6.419-8.48c0-0.053 0.054-0.053 0.054-0.053s0.054 0 0.109 0.053l6.365 8.427c0 0.053 0.055 0.053 0 0.107 0 0.053-0.054 0.053-0.109 0.053h-0.979c-0.435 0-0.816 0.213-1.034 0.587s-0.218 0.8 0 1.173l5.277 9.12c0.054 0 0.054 0.053 0 0.107z"></path>
</symbol>
<symbol id="icon-portrait" viewBox="0 0 32 32">
<path fill="#3a5f56" style="fill: var(--color1, #3a5f56)" d="M6.773 14.949c1.76 0 3.467 0.736 4.693 1.944 0.587 0.578 1.067 1.261 1.387 1.997 0.8-0.578 1.813-0.946 2.933-0.946 1.28 0 2.4 0.42 3.253 1.156 1.013-2.47 3.467-4.151 6.24-4.151 1.813 0 3.467 0.683 4.747 1.944s1.973 2.89 1.973 4.676v2.417c0 1.471-1.227 2.68-2.72 2.68h-26.56c-1.493 0-2.72-1.209-2.72-2.68v-2.207c0-1.839 0.747-3.626 2.080-4.939 1.28-1.209 2.933-1.944 4.693-1.892zM15.787 18.943c-2.187 0-3.947 1.734-3.947 3.888v2.785h7.893v-2.785c0-2.102-1.76-3.888-3.947-3.888zM6.827 15.947h-0.053c-1.44 0-2.827 0.578-3.893 1.629-1.173 1.156-1.813 2.68-1.813 4.204v2.207c0 0.893 0.747 1.629 1.653 1.629v-0.053h8.107v-2.785c0-1.209 0.48-2.365 1.227-3.205-0.267-0.736-0.693-1.419-1.28-1.997-1.067-1.051-2.453-1.629-3.947-1.629zM25.227 16c-2.507 0-4.693 1.576-5.387 3.941 0.587 0.788 0.96 1.787 0.96 2.89v2.785h8.48c0.907 0 1.653-0.736 1.653-1.629h-0.053v-2.417c0-1.471-0.587-2.89-1.653-3.941s-2.507-1.629-4-1.629zM15.84 10.64c1.547 0 2.773 1.209 2.773 2.732s-1.227 2.732-2.773 2.732-2.773-1.209-2.773-2.732c0-1.524 1.227-2.732 2.773-2.732zM15.84 11.744c-0.96 0-1.707 0.736-1.707 1.681s0.747 1.681 1.707 1.681 1.707-0.736 1.707-1.681c0-0.946-0.747-1.681-1.707-1.681zM6.72 5.333c2.080 0 3.787 1.681 3.787 3.731s-1.707 3.731-3.787 3.731c-2.080 0-3.787-1.681-3.787-3.731s1.707-3.731 3.787-3.731zM25.28 5.333c2.080 0 3.787 1.681 3.787 3.731s-1.707 3.731-3.787 3.731c-2.080 0-3.787-1.681-3.787-3.731s1.707-3.731 3.787-3.731zM6.72 6.384c-1.493 0-2.72 1.209-2.72 2.68s1.227 2.68 2.72 2.68c1.493 0 2.72-1.209 2.72-2.68s-1.227-2.68-2.72-2.68zM25.28 6.384c-1.493 0-2.72 1.209-2.72 2.68s1.227 2.68 2.72 2.68c1.493 0 2.72-1.209 2.72-2.68s-1.227-2.68-2.72-2.68z"></path>
</symbol>
<symbol id="icon-sports" viewBox="0 0 32 32">
<path fill="#3a5f56" style="fill: var(--color1, #3a5f56)" d="M31.68 1.309l-0.16-0.48c-0.053-0.16-0.213-0.32-0.373-0.373l-0.48-0.16c-0.107-0.053-2.292-0.639-5.758 0-1.973 0.373-3.945 1.119-5.864 2.185-1.066 0.586-2.079 1.226-3.145 2.025 0 0 0 0-0.053 0-1.279 0.959-2.612 2.078-3.838 3.304-4.851 4.849-7.783 9.644-9.436 12.788-1.813 3.463-2.399 5.808-2.452 5.915l-0.107 0.906c-0.053 0.266 0.053 0.533 0.373 0.639l2.719 0.906 0.906 2.717c0.053 0.16 0.267 0.32 0.48 0.32 0.053 0 0.107 0 0.16 0l0.8-0.213c0.107 0 2.452-0.639 5.918-2.451 2.506-1.279 5.971-3.357 9.703-6.554 1.013-0.853 2.026-1.812 3.092-2.824 2.239-2.238 4.052-4.582 5.331-6.98 1.066-1.918 1.759-3.943 2.186-5.861 0.693-3.517 0.053-5.701 0-5.808zM12.861 8.609c1.013-1.012 2.079-1.918 3.092-2.771l4.158 16.305c-2.666 2.291-5.225 3.943-7.357 5.169l-3.678-14.493c1.12-1.385 2.346-2.771 3.785-4.209zM10.889 28.377c-3.359 1.758-5.598 2.345-5.704 2.345l-0.373 0.107-0.8-2.451c-0.053-0.16-0.16-0.266-0.32-0.32l-2.506-0.853 0.107-0.32c0-0.107 0.64-2.345 2.346-5.701 1.013-1.918 2.506-4.476 4.585-7.247l3.572 13.96c-0.32 0.16-0.64 0.32-0.906 0.479zM30.667 6.85c-0.373 1.865-1.066 3.73-2.079 5.541-1.226 2.291-2.985 4.582-5.171 6.767-0.8 0.799-1.599 1.545-2.346 2.238l-4.158-16.198c0.906-0.639 1.813-1.226 2.719-1.705 1.866-1.012 3.732-1.705 5.544-2.078 2.399-0.48 4.052-0.266 4.798-0.107l-2.346 2.344c-0.213 0.213-0.213 0.533 0 0.746 0.107 0.107 0.267 0.16 0.373 0.16s0.267-0.053 0.373-0.16l2.346-2.344c0.213 0.693 0.373 2.398-0.053 4.795z"></path>
</symbol>
<symbol id="icon-wedding" viewBox="0 0 32 32">
<path fill="#3a5f56" style="fill: var(--color1, #3a5f56)" d="M18.707 7.307l1.786-3.040c0.108-0.16 0.108-0.373 0-0.533l-2.003-3.467c-0.108-0.16-0.271-0.267-0.487-0.267h-4.060c-0.217 0-0.379 0.107-0.487 0.267l-1.949 3.467c-0.108 0.16-0.108 0.373 0 0.533l1.786 3.040c-5.684 1.227-9.96 6.24-9.96 12.213 0 6.88 5.684 12.48 12.667 12.48s12.667-5.6 12.667-12.48c0-5.973-4.276-10.987-9.96-12.213zM14.322 1.067h3.41l1.678 2.933-1.678 2.933h-3.41l-1.678-2.933 1.678-2.933zM16 30.933c-6.387 0-11.584-5.12-11.584-11.413s5.197-11.413 11.584-11.413c6.387 0 11.584 5.12 11.584 11.413s-5.197 11.413-11.584 11.413z"></path>
</symbol>
<symbol id="icon-zigzag" viewBox="0 0 269 32">
<path d="M268.076 32c-0.357 0-0.714-0.135-0.987-0.404l-28.645-28.268-28.643 28.268c-0.524 0.517-1.45 0.517-1.974 0l-28.643-28.268-28.643 28.268c-0.524 0.517-1.451 0.517-1.975 0l-28.643-28.268-28.643 28.268c-0.524 0.517-1.451 0.517-1.975 0l-28.645-28.268-28.643 28.268c-0.524 0.517-1.451 0.517-1.975 0l-29.631-29.243c-0.546-0.539-0.546-1.412 0-1.949 0.546-0.539 1.429-0.539 1.975 0l28.643 28.268 28.643-28.268c0.546-0.539 1.43-0.539 1.975 0l28.645 28.268 28.643-28.268c0.524-0.517 1.451-0.517 1.975 0l28.643 28.268 28.644-28.268c0.524-0.517 1.45-0.517 1.974 0l28.643 28.268 28.643-28.268c0.524-0.517 1.452-0.517 1.976 0l29.632 29.243c0.546 0.539 0.546 1.41 0 1.949-0.273 0.269-0.63 0.404-0.989 0.404z"></path>
</symbol>
</defs>
</svg>
